<svg xmlns="http://www.w3.org/2000/svg" version="1.1" xmlns:xlink="http://www.w3.org/1999/xlink" xmlns:svgjs="http://svgjs.com/svgjs" width="512" height="512" x="0" y="0" viewBox="0 0 24 24" style="enable-background:new 0 0 512 512" xml:space="preserve" class=""><g><path d="M21.5 5v4a.5.5 0 1 1-1 0V5c0-.827-.673-1.5-1.5-1.5h-4a.5.5 0 1 1 0-1h4c1.378 0 2.5 1.121 2.5 2.5zm-.5 9.5a.5.5 0 0 0-.5.5v4c0 .827-.673 1.5-1.5 1.5h-4a.5.5 0 1 0 0 1h4c1.378 0 2.5-1.121 2.5-2.5v-4a.5.5 0 0 0-.5-.5zm-12 6H5c-.827 0-1.5-.673-1.5-1.5v-4a.5.5 0 1 0-1 0v4c0 1.379 1.122 2.5 2.5 2.5h4a.5.5 0 1 0 0-1zm-6-11a.5.5 0 0 0 .5-.5V5c0-.827.673-1.5 1.5-1.5h4a.5.5 0 1 0 0-1H5A2.503 2.503 0 0 0 2.5 5v4a.5.5 0 0 0 .5.5zM7.5 8v1a.5.5 0 1 0 1 0V8a.5.5 0 1 0-1 0zM16 9.5a.5.5 0 0 0 .5-.5V8a.5.5 0 1 0-1 0v1a.5.5 0 0 0 .5.5zm-3.092 1.435c.29.578.176 1.273-.281 1.731a.5.5 0 1 0 .707.707c.762-.763.95-1.922.469-2.886l-.856-1.71a.5.5 0 1 0-.894.447l.855 1.71zm3.54 4.289a.499.499 0 0 0-.894-.45c-.036.07-.925 1.726-3.554 1.726s-3.518-1.656-3.553-1.723a.5.5 0 1 0-.894.447C7.599 15.317 8.729 17.5 12 17.5s4.401-2.183 4.447-2.276z" fill="#000000" data-original="#000000" class=""></path></g></svg>