<svg xmlns="http://www.w3.org/2000/svg" version="1.1" xmlns:xlink="http://www.w3.org/1999/xlink" xmlns:svgjs="http://svgjs.com/svgjs" width="512" height="512" x="0" y="0" viewBox="0 0 24 24" style="enable-background:new 0 0 512 512" xml:space="preserve" class=""><g><path d="M24 5.614v4.55a.5.5 0 1 1-1 0v-4.55a1.366 1.366 0 0 0-1.364-1.364H2.364A1.366 1.366 0 0 0 1 5.614v6.272a1.366 1.366 0 0 0 1.364 1.364H12a.5.5 0 0 1 0 1H2.364A2.367 2.367 0 0 1 0 11.886V5.614A2.367 2.367 0 0 1 2.364 3.25h19.272A2.367 2.367 0 0 1 24 5.614zM7.035 6.982a.5.5 0 0 0-.707 0l-1.06 1.061-1.061-1.061a.5.5 0 1 0-.707.707L4.561 8.75 3.5 9.811a.5.5 0 0 0 .707.707l1.061-1.061 1.06 1.061a.5.5 0 0 0 .707-.707L5.975 8.75l1.06-1.061a.5.5 0 0 0 0-.707zm7.045 3.182a.5.5 0 0 0-.5-.5h-3.16a.5.5 0 0 0 0 1h3.16a.5.5 0 0 0 .5-.5zM24 15.25a5.5 5.5 0 1 1-5.5-5.5 5.507 5.507 0 0 1 5.5 5.5zm-1 0a4.5 4.5 0 1 0-4.5 4.5 4.505 4.505 0 0 0 4.5-4.5zm-2.612-1.558-2.466 2.466-1.068-1.068a.5.5 0 0 0-.708.707l1.422 1.422a.5.5 0 0 0 .707 0L21.1 14.4a.5.5 0 1 0-.707-.707z" fill="#000000" data-original="#000000" class=""></path></g></svg>