<svg xmlns="http://www.w3.org/2000/svg" version="1.1" xmlns:xlink="http://www.w3.org/1999/xlink" xmlns:svgjs="http://svgjs.com/svgjs" width="512" height="512" x="0" y="0" viewBox="0 0 512 512" style="enable-background:new 0 0 512 512" xml:space="preserve" class=""><g><path d="M416 458.667c-79.542 0-149.333-59.813-149.333-128A10.66 10.66 0 0 0 256 320a10.66 10.66 0 0 0-10.667 10.667C245.334 410.219 325.084 480 416 480a10.66 10.66 0 0 0 10.667-10.667A10.66 10.66 0 0 0 416 458.667zM96 66.292c1.896 0 3.813-.5 5.542-1.542 90.25-54.77 207.271-56.76 298.625-6.27 5.167 2.865 11.646.99 14.5-4.177 2.854-5.156.979-11.646-4.166-14.49C363.269 13.722 309.671-.092 255.99 0 198.312.1 140.537 16.13 90.459 46.5c-5.021 3.063-6.625 9.625-3.583 14.656A10.658 10.658 0 0 0 96 66.292z" fill="#000000" data-original="#000000" class=""></path><path d="M489.333 186.834C448.021 112.219 356.438 64 256 64S63.979 112.219 22.667 186.834c-2.854 5.156-.979 11.646 4.167 14.5a10.677 10.677 0 0 0 14.5-4.167C78.938 129.23 163.209 85.334 256 85.334s177.063 43.896 214.666 111.833a10.674 10.674 0 0 0 14.501 4.167c5.146-2.854 7.021-9.344 4.166-14.5z" fill="#000000" data-original="#000000" class=""></path><path d="M128 341.334c0-74.167 53.833-128 128-128 77.75 0 128 46.052 128 117.333a10.66 10.66 0 0 0 10.667 10.667 10.66 10.66 0 0 0 10.667-10.667C405.334 247.73 345.313 192 256 192c-85.125 0-149.333 64.198-149.333 149.333 0 62.333 22.208 113.927 72.042 167.281a10.623 10.623 0 0 0 7.792 3.385c2.604 0 5.229-.948 7.271-2.875 4.313-4.021 4.542-10.771.521-15.073C148.438 444.948 128 397.855 128 341.334z" fill="#000000" data-original="#000000" class=""></path><path d="M256 128c-123.604 0-213.333 85.23-213.333 202.667 0 31.667 10.646 61.688 22.146 89.417 2.25 5.458 8.542 8 13.938 5.771 5.438-2.26 8.021-8.5 5.771-13.938C73.854 386.219 64 358.605 64 330.667c0-106.771 78.958-181.333 192-181.333 109.458 0 192 82.542 192 192 0 29.406-23.917 53.333-53.333 53.333-29.417 0-53.333-23.927-53.333-53.333C341.334 291.094 306.25 256 256 256s-85.333 35.094-85.333 85.333c0 69.604 39.375 128.156 113.854 169.333a10.674 10.674 0 0 0 5.167 1.333c3.75 0 7.396-1.99 9.333-5.51 2.854-5.156.979-11.646-4.167-14.49C226.604 454.271 192 403.584 192 341.334c0-44.208 32.146-64 64-64s64 19.792 64 64C320 382.5 353.5 416 394.667 416s74.667-33.5 74.667-74.667C469.334 219.709 377.625 128 256 128z" fill="#000000" data-original="#000000" class=""></path></g></svg>